<svg xmlns="http://www.w3.org/2000/svg" aria-hidden="true" style="position:absolute;width:0;height:0;overflow:hidden"><defs>
<symbol id="icon-calendar" viewBox="0 0 32 32"><path stroke-linecap="round" stroke-linejoin="round" stroke-width="2.88" d="M25.333 5.333H6.666A2.667 2.667 0 0 0 3.999 8v18.667a2.667 2.667 0 0 0 2.667 2.667h18.667A2.667 2.667 0 0 0 28 26.667V8a2.667 2.667 0 0 0-2.667-2.667zM21.333 2.667V8M10.667 2.667V8M4 13.333h24"/></symbol>
<symbol id="icon-star" viewBox="0 0 32 32"><path stroke-width="2.4" d="M12.4 10.394 16 3.572l3.6 6.822a2.2 2.2 0 0 0 1.571 1.141l7.601 1.315-5.376 5.532a2.2 2.2 0 0 0-.6 1.846l1.098 7.635-6.922-3.404a2.199 2.199 0 0 0-1.941 0l-6.922 3.404 1.098-7.635a2.2 2.2 0 0 0-.6-1.846L3.231 12.85l7.601-1.315a2.202 2.202 0 0 0 1.571-1.141z"/></symbol>
<symbol id="icon-user" viewBox="0 0 32 32"><path stroke-linecap="round" stroke-linejoin="round" stroke-width="2.667" d="M16 20c-4.227 0-7.986 2.041-10.379 5.208-.515.682-.773 1.022-.764 1.483.006.356.23.805.51 1.025.362.284.865.284 1.869.284h17.527c1.005 0 1.507 0 1.869-.284.28-.22.503-.669.51-1.025.008-.461-.249-.801-.764-1.483C23.985 22.041 20.226 20 15.999 20zM16 16a6 6 0 1 0 0-12 6 6 0 0 0 0 12z"/></symbol>
<symbol id="icon-vector" viewBox="0 0 32 32"><path stroke-linecap="round" stroke-linejoin="round" stroke-width="5.333" d="m4 10 12 12 12-12"/></symbol>
<symbol id="icon-search" viewBox="0 0 32 32"><path stroke-linecap="round" stroke-linejoin="round" stroke-width="3.556" d="M14.667 25.333c5.891 0 10.667-4.776 10.667-10.667S20.558 3.999 14.667 3.999 4 8.775 4 14.666s4.776 10.667 10.667 10.667zM28.001 28l-5.8-5.8"/></symbol>
<symbol id="icon-check" viewBox="0 0 32 32"><path stroke-linecap="round" stroke-linejoin="round" stroke-width="2.667" d="M29.038 6.963 11.112 24.889l-8.148-8.148"/></symbol>
<symbol id="icon-cross" viewBox="0 0 32 32"><path stroke-linecap="round" stroke-linejoin="round" stroke-width="4" d="M28.833 3.167 3.166 28.834m0-25.667 25.666 25.667"/></symbol>
<symbol id="icon-eye" viewBox="0 0 32 32"><path stroke-linecap="round" stroke-linejoin="round" stroke-width="2.909" d="M1.332 16S6.665 5.333 15.999 5.333 30.666 16 30.666 16s-5.333 10.667-14.667 10.667C6.666 26.667 1.332 16 1.332 16z"/><path stroke-linecap="round" stroke-linejoin="round" stroke-width="2.909" d="M16 20a4 4 0 1 0 0-8 4 4 0 0 0 0 8z"/></symbol>
<symbol id="icon-eye-off" viewBox="0 0 32 32"><path stroke-linecap="round" stroke-linejoin="round" stroke-width="2.909" d="M23.922 23.92a13.43 13.43 0 0 1-7.92 2.747C6.669 26.667 1.335 16 1.335 16a24.605 24.605 0 0 1 6.747-7.92m5.12-2.427a12.161 12.161 0 0 1 2.8-.32C25.335 5.333 30.669 16 30.669 16a24.646 24.646 0 0 1-2.88 4.253m-8.961-1.426a4.01 4.01 0 0 1-2.855 1.273 3.996 3.996 0 0 1-3.779-2.501 3.995 3.995 0 0 1 .983-4.424M1.335 1.333l29.333 29.333"/></symbol>
<symbol id="icon-edit" viewBox="0 0 32 32"><path stroke-linecap="round" stroke-linejoin="round" stroke-width="2.667" d="M22.667 4a3.766 3.766 0 0 1 4.109-.817 3.766 3.766 0 0 1 2.327 3.484 3.779 3.779 0 0 1-1.104 2.666l-18 18-7.333 2 2-7.333 18-18z"/></symbol>
<symbol id="icon-trash" viewBox="0 0 32 32"><path stroke-linecap="round" stroke-linejoin="round" stroke-width="2.667" d="M4 8h24M25.333 8v18.667a2.668 2.668 0 0 1-2.667 2.667H9.333a2.668 2.668 0 0 1-2.667-2.667V8m4.001 0V5.333a2.668 2.668 0 0 1 2.667-2.667h5.333a2.668 2.668 0 0 1 2.667 2.667V8M13.333 14.667v8M18.667 14.667v8"/></symbol>
<symbol id="icon-heart" viewBox="0 0 32 32"><path stroke-linecap="round" stroke-linejoin="round" stroke-width="2.667" d="M27.788 6.147a7.345 7.345 0 0 0-5.187-2.15 7.33 7.33 0 0 0-5.187 2.15L16.001 7.56l-1.413-1.413a7.333 7.333 0 0 0-10.374 0 7.333 7.333 0 0 0 0 10.374l11.787 11.787 11.787-11.787a7.345 7.345 0 0 0 2.149-5.187 7.33 7.33 0 0 0-2.149-5.187z"/></symbol>
<symbol id="icon-heart-logo" viewBox="0 0 32 32"><path d="M15.989 5.784C12.891 2.126 7.725 1.142 3.844 4.492s-4.428 8.949-1.38 12.911C4.416 19.94 9.416 24.645 12.759 27.7c1.111 1.015 1.666 1.523 2.332 1.726a3.141 3.141 0 0 0 1.797 0c.665-.204 1.221-.711 2.331-1.726 3.343-3.055 8.343-7.76 10.295-10.297 3.048-3.961 2.568-9.597-1.38-12.911s-9.048-2.365-12.146 1.292z"/></symbol>
<symbol id="icon-reproductive" viewBox="0 0 32 32"><path d="M10.259 8.436a6.213 6.213 0 0 0-7.275 2.111 6.218 6.218 0 0 0 7.516 9.375 6.217 6.217 0 0 0 3.643-6.641.877.877 0 0 1 .162-.66.88.88 0 0 1 .582-.353.877.877 0 0 1 .66.162.88.88 0 0 1 .353.582A7.998 7.998 0 0 1 1.757 19.23 7.998 7.998 0 0 1 5.768 6.549a7.99 7.99 0 0 1 5.137.231.884.884 0 0 1 .5.47.888.888 0 0 1-1.146 1.186z"/><path d="M7.108 29.334v-7.108a.889.889 0 0 1 1.776 0v7.108a.889.889 0 0 1-1.776 0z"/><path d="M4.443 24.891a.889.889 0 0 1 .888-.888h5.331a.889.889 0 0 1 0 1.776H5.331a.884.884 0 0 1-.888-.888zM20.349 8.243a6.221 6.221 0 0 0-7.482 3.72 6.212 6.212 0 0 0-.384 2.999.884.884 0 0 1-.183.657.9.9 0 0 1-.595.335.885.885 0 0 1-.988-.781 7.993 7.993 0 0 1 4.978-8.37 8 8 0 0 1 10.959 7.536 7.999 7.999 0 0 1-11.161 7.234.893.893 0 0 1-.466-1.168.886.886 0 0 1 1.168-.464 6.206 6.206 0 0 0 4.949-.011 6.22 6.22 0 0 0-.796-11.686z"/><path d="M23.807 9.97a.888.888 0 0 1 0-1.256l6.664-6.664a.9.9 0 0 1 .976-.205.883.883 0 0 1 .552.83.897.897 0 0 1-.271.631L25.064 9.97a.888.888 0 0 1-1.256 0z"/><path d="M31.031 8.009a.896.896 0 0 1-.625-.268.89.89 0 0 1-.252-.632l.044-3.531-3.531.044a.891.891 0 0 1-.9-.877.891.891 0 0 1 .877-.9l5.354-.068-.068 5.354a.896.896 0 0 1-.268.625.89.89 0 0 1-.632.252z"/></symbol>
<symbol id="icon-male" viewBox="0 0 32 32"><path stroke-linecap="round" stroke-linejoin="round" stroke-width="2.4" d="M16 14.4a8 8 0 1 0 0 16 8 8 0 0 0 0-16zm0 0V1.6m0 0L22.4 8M16 1.6 9.6 8"/></symbol>
<symbol id="icon-female" viewBox="0 0 32 32"><path stroke-linecap="round" stroke-linejoin="round" stroke-width="2.4" d="M16 17.6a8 8 0 1 0 0-16 8 8 0 0 0 0 16zm0 0v12.8m-4.8-4.8h9.6"/></symbol></defs></svg>